# xmcd CD database file
#
# Track frame offsets:
#	150
#	5680
#	31140
#	64817
#	84830
#	102607
#	123380
#	149087
#	174837
#	204962
#
# Disc length: 3024 seconds
#
# Revision: 0
# Processed by: cddbd v1.5.1PL0 Copyright (c) Steve Scherf et al.
# Submitted via: CDex 1.51
#
DISCID=820bce0a
DTITLE=Paulo y su Elite - Tu No Me Calculas
DYEAR=1993
DGENRE=Salsa
TTITLE0=Sonando Y Pegando Duro (Presentacion)
TTITLE1=Meneate
TTITLE2=Tu Todo Mi Tiempo
TTITLE3=Muchacha Ternura
TTITLE4=Ven A Mi Chachacha
TTITLE5=Yo No Puedo Estar Con Otra
TTITLE6=Tu No Me Calculas
TTITLE7=Fatalidad Y Casualidad
TTITLE8=No Hace Falta Que Lo Diga
TTITLE9=La Captura
EXTD=YEAR: 1993
EXTT0=
EXTT1=
EXTT2=
EXTT3=
EXTT4=
EXTT5=
EXTT6=
EXTT7=
EXTT8=
EXTT9=
PLAYORDER=
